<?xml version="1.0" encoding="utf-8"?>
<!-- Generator: Adobe Illustrator 27.2.0, SVG Export Plug-In . SVG Version: 6.00 Build 0)  -->
<svg version="1.1" id="Layer_1" xmlns="http://www.w3.org/2000/svg" xmlns:xlink="http://www.w3.org/1999/xlink" x="0px" y="0px"
	 viewBox="0 0 109 217" style="enable-background:new 0 0 109 217;" xml:space="preserve">
<style type="text/css">
	.st0{fill:#00857C;}
	.st1{fill:#FFFFFF;}
</style>
<path class="st0" d="M0,217c59.9,0,108.5-48.6,108.5-108.5S59.9,0,0,0V217z"/>
<path class="st1" d="M29.7,145.3c-1.1,0-2.1-0.4-2.9-1.2c-1.6-1.6-1.6-4.2,0-5.8l29.9-29.8L26.8,78.7c-1.6-1.6-1.6-4.2,0-5.8
	c1.6-1.6,4.2-1.6,5.8,0l32.8,32.7c0.8,0.8,1.2,1.8,1.2,2.9s-0.4,2.1-1.2,2.9l-32.8,32.7C31.8,144.9,30.7,145.3,29.7,145.3z"/>
</svg>
