<?xml version="1.0" encoding="utf-8"?>
<!-- Generator: Adobe Illustrator 27.2.0, SVG Export Plug-In . SVG Version: 6.00 Build 0)  -->
<svg version="1.1" id="Layer_1" xmlns="http://www.w3.org/2000/svg" xmlns:xlink="http://www.w3.org/1999/xlink" x="0px" y="0px"
	 viewBox="0 0 109 217" style="enable-background:new 0 0 109 217;" xml:space="preserve">
<style type="text/css">
	.st0{fill:#00857C;}
	.st1{fill:#FFFFFF;}
</style>
<g>
	<path class="st0" d="M109,0C49.1,0,0.5,48.6,0.5,108.5S49.1,217,109,217V0z"/>
	<path class="st1" d="M79.3,71.7c1.1,0,2.1,0.4,2.9,1.2c1.6,1.6,1.6,4.2,0,5.8l-29.9,29.8l29.9,29.8c1.6,1.6,1.6,4.2,0,5.8
		c-1.6,1.6-4.2,1.6-5.8,0l-32.8-32.7c-0.8-0.8-1.2-1.8-1.2-2.9s0.4-2.1,1.2-2.9l32.8-32.7C77.2,72.1,78.3,71.7,79.3,71.7z"/>
</g>
</svg>
