<?xml version="1.0" encoding="utf-8"?>
<!-- Generator: Adobe Illustrator 27.2.0, SVG Export Plug-In . SVG Version: 6.00 Build 0)  -->
<svg version="1.1" id="Layer_1" xmlns="http://www.w3.org/2000/svg" xmlns:xlink="http://www.w3.org/1999/xlink" x="0px" y="0px"
	 viewBox="0 0 88 83" style="enable-background:new 0 0 88 83;" xml:space="preserve">
<style type="text/css">
	.st0{fill:#0C2340;}
</style>
<path class="st0" d="M84.6,29L59,27.2c-1.4-0.1-2.6-1-3.1-2.3L47.4,2.4c-1.2-3.1-5.5-3.1-6.7,0l-8.6,22.5c-0.5,1.3-1.7,2.2-3.1,2.3
	L3.4,29c-3.3,0.2-4.6,4.4-2,6.4l19.5,15.2c1.1,0.9,1.6,2.4,1.2,3.8l-6.7,24c-0.9,3.2,2.6,5.8,5.4,4l21.3-13.6c1.2-0.7,2.7-0.7,3.9,0
	l21.3,13.6c2.8,1.8,6.3-0.8,5.4-4l-6.7-24c-0.4-1.4,0.1-2.9,1.2-3.8l19.5-15.2C89.2,33.3,87.9,29.2,84.6,29z"/>
</svg>
