<?xml version="1.0" encoding="utf-8"?>
<!-- Generator: Adobe Illustrator 27.2.0, SVG Export Plug-In . SVG Version: 6.00 Build 0)  -->
<svg version="1.1" id="Layer_1" xmlns="http://www.w3.org/2000/svg" xmlns:xlink="http://www.w3.org/1999/xlink" x="0px" y="0px"
	 viewBox="0 0 410 110" style="enable-background:new 0 0 410 110;" xml:space="preserve">
<style type="text/css">
	.st0{fill:#00867C;}
	.st1{fill:#001E3F;}
	.st2{opacity:0.8;}
	.st3{opacity:0.6;}
	.st4{opacity:0.4;}
	.st5{fill:#38424A;}
	.st6{opacity:0.2;}
	.st7{opacity:0.1;}
	.st8{fill:#FFFFFF;}
	.st9{opacity:5.000000e-02;}
</style>
<g>
	<g>
		<path class="st0" d="M75.9,73.1V47.5l-0.8-6.4l8-1.3l1.4,5.2c0.9-1.9,2.1-3.3,3.8-4.4c1.6-1,3.7-1.5,6.3-1.5
			c3.7,0,6.5,1.1,8.5,3.2c2,2.1,3,5.4,3,9.7v21.1h-9.2V52.8c0-1.1-0.1-2.1-0.4-3.1c-0.3-1-0.8-1.8-1.5-2.4c-0.8-0.6-1.9-0.9-3.4-0.9
			c-2.1,0-3.6,0.6-4.7,1.8c-1.1,1.2-1.6,2.8-1.6,4.9v20H75.9z"/>
		<path class="st0" d="M127.2,74.1c-5,0-8.8-1.4-11.5-4.2c-2.7-2.8-4-7.1-4-13.1c0-6,1.4-10.4,4.1-13.4c2.7-3,6.6-4.4,11.8-4.4
			c2.4,0,4.5,0.3,6.3,0.9c1.9,0.6,3.5,1.5,4.9,2.7l-3.2,5.7c-0.8-0.5-1.7-1-2.8-1.4c-1.1-0.4-2.4-0.6-3.7-0.6
			c-2.6,0-4.6,0.8-5.9,2.5c-1.3,1.7-2,4.3-2,7.9c0,6.8,2.7,10.2,8,10.2c1.4,0,2.7-0.2,3.8-0.6c1.2-0.4,2.2-0.9,3-1.4l3,5.7
			c-1.4,1.1-3.1,2-5.1,2.7C131.8,73.8,129.6,74.1,127.2,74.1z"/>
		<path class="st0" d="M157.6,74.1c-5.2,0-9.2-1.5-11.8-4.4c-2.7-2.9-4-7.3-4-13c0-5.8,1.4-10.1,4.1-13.2c2.7-3,6.7-4.5,11.9-4.5
			c5.1,0,9.1,1.5,11.8,4.4c2.7,2.9,4.1,7.3,4.1,13c0,5.8-1.4,10.3-4.1,13.2C166.7,72.7,162.8,74.1,157.6,74.1z M157.6,66.9
			c2.2,0,3.8-0.8,4.9-2.4c1-1.6,1.5-4.2,1.5-7.8c0-3.7-0.5-6.4-1.5-8c-1-1.6-2.6-2.4-4.8-2.4c-2.3,0-3.9,0.8-4.9,2.4
			c-1,1.6-1.5,4.2-1.5,7.9c0,3.7,0.5,6.4,1.5,8C153.8,66.1,155.4,66.9,157.6,66.9z"/>
		<path class="st1" d="M179.7,73.1V47.5l-0.8-6.4l8-1.3l1.4,5.2c0.9-1.9,2.1-3.3,3.8-4.4c1.6-1,3.7-1.5,6.3-1.5
			c3.7,0,6.5,1.1,8.5,3.2c2,2.1,3,5.4,3,9.7v21.1h-9.2V52.8c0-1.1-0.1-2.1-0.4-3.1c-0.3-1-0.8-1.8-1.5-2.4c-0.8-0.6-1.9-0.9-3.4-0.9
			c-2.1,0-3.6,0.6-4.7,1.8c-1.1,1.2-1.6,2.8-1.6,4.9v20H179.7z"/>
		<path class="st1" d="M231,74.1c-5,0-8.8-1.4-11.5-4.2c-2.7-2.8-4-7.1-4-13.1c0-6,1.4-10.4,4.1-13.4c2.7-3,6.6-4.4,11.8-4.4
			c2.4,0,4.5,0.3,6.3,0.9c1.9,0.6,3.5,1.5,4.9,2.7l-3.2,5.7c-0.8-0.5-1.7-1-2.8-1.4c-1.1-0.4-2.4-0.6-3.7-0.6
			c-2.6,0-4.6,0.8-5.9,2.5c-1.3,1.7-2,4.3-2,7.9c0,6.8,2.7,10.2,8,10.2c1.4,0,2.7-0.2,3.8-0.6c1.2-0.4,2.2-0.9,3-1.4l3,5.7
			c-1.4,1.1-3.1,2-5.1,2.7C235.6,73.8,233.4,74.1,231,74.1z"/>
		<path class="st1" d="M261.8,74.1c-5.2,0-9.2-1.4-12.1-4.3c-2.8-2.8-4.2-7.2-4.2-13.2c0-5.7,1.3-10,3.9-13.1
			c2.6-3,6.4-4.5,11.5-4.5c4.6,0,8.2,1.3,10.7,3.9c2.5,2.6,3.7,6.4,3.7,11.6v4.7h-20.8c0.1,1.4,0.4,2.7,0.9,3.9
			c0.5,1.2,1.4,2.1,2.6,2.8c1.2,0.7,2.9,1.1,5,1.1c3.4,0,6.4-0.9,8.8-2.8l3.2,5.7c-1.7,1.5-3.7,2.6-5.9,3.2
			C266.9,73.8,264.5,74.1,261.8,74.1z M260.9,46.1c-1.7,0-3,0.4-3.9,1.2c-0.9,0.8-1.5,1.8-1.9,2.9c-0.3,1.2-0.5,2.3-0.6,3.5h12.5
			c0-1.1-0.2-2.3-0.5-3.5c-0.3-1.2-0.9-2.2-1.7-3C263.9,46.5,262.6,46.1,260.9,46.1z"/>
		<path class="st1" d="M281.8,87.7V47.5l-0.8-6.4l7.9-1.3l1.5,5.3c1-2.1,2.3-3.7,4-4.6c1.6-0.9,3.6-1.4,5.9-1.4c3.9,0,7,1.4,9.3,4.2
			c2.3,2.8,3.5,7.2,3.5,13.3c0,5.9-1.1,10.3-3.4,13.2c-2.3,2.9-5.5,4.4-9.7,4.4c-2,0-3.7-0.3-5.2-1c-1.4-0.7-2.7-1.8-3.7-3.4v18
			H281.8z M297.2,66.9c2.1,0,3.6-0.8,4.7-2.3c1.1-1.5,1.6-4.2,1.6-8c0-3.6-0.5-6.2-1.5-7.8c-1-1.6-2.6-2.5-4.7-2.5
			c-1.9,0-3.4,0.6-4.5,1.8c-1.1,1.2-1.7,3.1-1.7,5.7v5.5c0,2.7,0.5,4.6,1.6,5.7C293.8,66.3,295.3,66.9,297.2,66.9z"/>
		<path class="st1" d="M333.1,73.7c-3.7,0-6.6-1-8.6-3c-2-2-3-5.2-3-9.6V47h-5.8v-5.8l5.8-1.1v-9h9.3v9h8.8V47h-8.8v13.7
			c0,3.7,1.5,5.6,4.4,5.6c0.8,0,1.6-0.1,2.4-0.4c0.8-0.3,1.6-0.5,2.3-0.9l2.4,6.2c-1.1,0.7-2.4,1.2-3.9,1.7
			C336.9,73.5,335.1,73.7,333.1,73.7z"/>
		<path class="st1" d="M359.6,74.1c-5.2,0-9.2-1.5-11.8-4.4c-2.7-2.9-4-7.3-4-13c0-5.8,1.4-10.1,4.1-13.2c2.7-3,6.7-4.5,11.9-4.5
			c5.1,0,9.1,1.5,11.8,4.4c2.7,2.9,4.1,7.3,4.1,13c0,5.8-1.4,10.3-4.1,13.2C368.7,72.7,364.7,74.1,359.6,74.1z M359.6,66.9
			c2.2,0,3.8-0.8,4.9-2.4c1-1.6,1.5-4.2,1.5-7.8c0-3.7-0.5-6.4-1.5-8c-1-1.6-2.6-2.4-4.8-2.4c-2.3,0-3.9,0.8-4.9,2.4
			c-1,1.6-1.5,4.2-1.5,7.9c0,3.7,0.5,6.4,1.5,8C355.8,66.1,357.4,66.9,359.6,66.9z"/>
		<path class="st1" d="M392.4,74.1c-2.6,0-5.1-0.3-7.4-1c-2.3-0.7-4.3-1.7-6-3.1l3.2-6.1c1.4,1,3,1.7,4.7,2.2
			c1.7,0.5,3.6,0.8,5.6,0.8c1.9,0,3.3-0.3,4-0.8c0.8-0.5,1.1-1.3,1.1-2.1c0-0.9-0.3-1.6-0.9-2c-0.6-0.5-1.6-0.9-2.9-1.2l-3.8-0.9
			c-3.3-0.8-5.8-2-7.5-3.7c-1.7-1.6-2.5-3.8-2.5-6.6c0-3.2,1.2-5.8,3.5-7.7c2.4-1.9,5.6-2.8,9.7-2.8c2.2,0,4.3,0.3,6.4,1
			c2.1,0.7,3.9,1.6,5.5,2.9l-3.3,5.8c-1.1-0.8-2.4-1.4-3.8-1.8c-1.4-0.5-2.9-0.7-4.6-0.7c-1.5,0-2.7,0.2-3.5,0.7
			c-0.8,0.5-1.3,1.2-1.3,2.2c0,0.8,0.3,1.4,0.9,1.8c0.6,0.4,1.6,0.8,3.1,1.1l3.8,0.9c3.2,0.8,5.6,2,7.4,3.6c1.7,1.7,2.6,3.9,2.6,6.8
			c0,3.3-1.2,5.9-3.7,7.8C400.2,73.2,396.8,74.1,392.4,74.1z"/>
	</g>
	<g>
		<path class="st1" d="M143.9,107.5c-1.3,0-2.4-0.4-3.2-1.1c-0.8-0.7-1.2-1.7-1.2-3c0-1.7,0.7-3,2.2-3.9c1.5-0.9,3.7-1.4,6.6-1.4
			c-0.1-1.2-0.4-2-0.9-2.6c-0.5-0.6-1.4-0.9-2.7-0.9c-0.7,0-1.4,0.1-2,0.3c-0.6,0.2-1.2,0.5-1.7,0.8l-0.6-1.1c0.5-0.4,1.2-0.7,2-1
			c0.8-0.2,1.6-0.4,2.5-0.4c1.7,0,2.9,0.4,3.7,1.3c0.8,0.9,1.2,2.1,1.2,3.7v5.8l0.3,2.9l-1.4,0.2l-0.4-2.3c-0.5,0.9-1.1,1.5-1.9,1.9
			C145.7,107.3,144.8,107.5,143.9,107.5z M141.1,103.3c0,0.9,0.3,1.6,0.8,2.1c0.6,0.5,1.3,0.8,2.3,0.8c0.7,0,1.4-0.1,2-0.4
			c0.6-0.3,1.1-0.7,1.5-1.3c0.4-0.6,0.6-1.2,0.6-2v-3.2c-2.4,0.1-4.2,0.5-5.4,1.2C141.7,101.1,141.1,102.1,141.1,103.3z"/>
		<path class="st1" d="M164.4,107.4c-1.5,0-2.5-0.4-3.1-1.3c-0.6-0.9-0.9-2.1-0.9-3.6v-7.6h-2.6v-1.1l2.6-0.2v-4h1.6v4h4.4v1.3H162
			v7.6c0,1.1,0.2,2,0.6,2.7c0.4,0.6,1.1,0.9,2.1,0.9c0.5,0,0.9-0.1,1.3-0.2c0.4-0.1,0.8-0.3,1.1-0.5l0.5,1.1
			c-0.4,0.3-0.8,0.5-1.4,0.7C165.7,107.3,165.1,107.4,164.4,107.4z"/>
		<path class="st1" d="M180.8,93.7v10.5l0.3,2.8l-1.4,0.2l-0.4-2.3c-0.8,1.7-2.3,2.6-4.6,2.6c-1.5,0-2.7-0.4-3.4-1.3
			c-0.8-0.9-1.2-2.2-1.2-4.1v-8.5h1.6v8.3c0,0.7,0.1,1.4,0.3,2.1c0.2,0.6,0.6,1.2,1.1,1.6c0.5,0.4,1.2,0.6,2.1,0.6
			c1.3,0,2.3-0.4,3-1.1c0.7-0.7,1.1-1.7,1.1-2.9v-8.6H180.8z"/>
		<path class="st1" d="M194,107.5c-1.3,0-2.4-0.4-3.2-1.1c-0.8-0.7-1.2-1.7-1.2-3c0-1.7,0.7-3,2.2-3.9c1.5-0.9,3.7-1.4,6.6-1.4
			c-0.1-1.2-0.4-2-0.9-2.6c-0.5-0.6-1.4-0.9-2.7-0.9c-0.7,0-1.4,0.1-2,0.3c-0.6,0.2-1.2,0.5-1.7,0.8l-0.6-1.1c0.5-0.4,1.2-0.7,2-1
			c0.8-0.2,1.6-0.4,2.5-0.4c1.7,0,2.9,0.4,3.7,1.3c0.8,0.9,1.2,2.1,1.2,3.7v5.8l0.3,2.9l-1.4,0.2l-0.4-2.3c-0.5,0.9-1.1,1.5-1.9,1.9
			C195.8,107.3,194.9,107.5,194,107.5z M191.2,103.3c0,0.9,0.3,1.6,0.8,2.1c0.6,0.5,1.3,0.8,2.3,0.8c0.7,0,1.4-0.1,2-0.4
			c0.6-0.3,1.1-0.7,1.5-1.3c0.4-0.6,0.6-1.2,0.6-2v-3.2c-2.4,0.1-4.2,0.5-5.4,1.2C191.8,101.1,191.2,102.1,191.2,103.3z"/>
		<path class="st1" d="M204.1,107.2V87.3h1.6v19.9H204.1z"/>
		<path class="st1" d="M214.9,107.5c-1.9,0-3.3-0.6-4.3-1.8c-1-1.2-1.5-2.9-1.5-5.2c0-2.4,0.5-4.1,1.5-5.4c1-1.2,2.5-1.8,4.4-1.8
			c0.8,0,1.6,0.1,2.3,0.4c0.7,0.2,1.3,0.6,1.8,1.1l-0.7,1c-0.4-0.3-0.9-0.6-1.4-0.8c-0.6-0.2-1.2-0.3-1.8-0.3
			c-1.5,0-2.6,0.5-3.3,1.5c-0.8,1-1.1,2.5-1.1,4.4c0,1.8,0.4,3.2,1.1,4.2c0.7,1,1.8,1.5,3.3,1.5c0.7,0,1.3-0.1,1.9-0.3
			c0.6-0.2,1.1-0.5,1.5-0.8l0.7,1.1c-0.5,0.4-1.1,0.7-1.8,1C216.6,107.4,215.8,107.5,214.9,107.5z"/>
		<path class="st1" d="M225.3,107.5c-1.3,0-2.4-0.4-3.2-1.1c-0.8-0.7-1.2-1.7-1.2-3c0-1.7,0.7-3,2.2-3.9c1.5-0.9,3.7-1.4,6.6-1.4
			c-0.1-1.2-0.4-2-0.9-2.6c-0.5-0.6-1.4-0.9-2.7-0.9c-0.7,0-1.4,0.1-2,0.3c-0.6,0.2-1.2,0.5-1.7,0.8l-0.6-1.1c0.5-0.4,1.2-0.7,2-1
			c0.8-0.2,1.6-0.4,2.5-0.4c1.7,0,2.9,0.4,3.7,1.3c0.8,0.9,1.2,2.1,1.2,3.7v5.8l0.3,2.9l-1.4,0.2l-0.4-2.3c-0.5,0.9-1.1,1.5-1.9,1.9
			C227.1,107.3,226.2,107.5,225.3,107.5z M222.5,103.3c0,0.9,0.3,1.6,0.8,2.1c0.6,0.5,1.3,0.8,2.3,0.8c0.7,0,1.4-0.1,2-0.4
			c0.6-0.3,1.1-0.7,1.5-1.3c0.4-0.6,0.6-1.2,0.6-2v-3.2c-2.4,0.1-4.2,0.5-5.4,1.2C223.1,101.1,222.5,102.1,222.5,103.3z"/>
		<path class="st1" d="M235.4,107.2V96.6l-0.3-2.8l1.3-0.2l0.4,2.3c0.8-1.7,2.4-2.6,4.6-2.6c1.6,0,2.8,0.4,3.6,1.3
			c0.8,0.9,1.2,2.2,1.2,4.1v8.5h-1.6v-8.3c0-0.7-0.1-1.4-0.3-2.1c-0.2-0.6-0.6-1.2-1.1-1.5c-0.5-0.4-1.2-0.6-2.2-0.6
			c-1.3,0-2.3,0.4-3.1,1.1c-0.8,0.7-1.1,1.7-1.1,2.9v8.6H235.4z"/>
		<path class="st1" d="M255.3,107.5c-1.9,0-3.3-0.6-4.3-1.8c-1-1.2-1.5-2.9-1.5-5.2c0-2.4,0.5-4.1,1.5-5.4c1-1.2,2.5-1.8,4.4-1.8
			c0.8,0,1.6,0.1,2.3,0.4c0.7,0.2,1.3,0.6,1.8,1.1l-0.7,1c-0.4-0.3-0.9-0.6-1.4-0.8c-0.6-0.2-1.2-0.3-1.8-0.3
			c-1.5,0-2.6,0.5-3.3,1.5c-0.8,1-1.1,2.5-1.1,4.4c0,1.8,0.4,3.2,1.1,4.2c0.7,1,1.8,1.5,3.3,1.5c0.7,0,1.3-0.1,1.9-0.3
			c0.6-0.2,1.1-0.5,1.5-0.8l0.7,1.1c-0.5,0.4-1.1,0.7-1.8,1C257,107.4,256.2,107.5,255.3,107.5z"/>
		<path class="st1" d="M267.7,107.5c-2,0-3.5-0.6-4.6-1.8c-1.1-1.2-1.7-3-1.7-5.4c0-2.2,0.5-4,1.5-5.2c1-1.2,2.5-1.8,4.4-1.8
			c1.7,0,3,0.5,4,1.5c0.9,1,1.4,2.5,1.4,4.5v1.6H263c0.1,1.6,0.5,2.9,1.3,3.9c0.8,0.9,2,1.4,3.6,1.4c0.8,0,1.5-0.1,2.1-0.3
			c0.6-0.2,1.2-0.5,1.7-0.9l0.7,1.1c-0.6,0.5-1.3,0.9-2.1,1.1C269.5,107.4,268.6,107.5,267.7,107.5z M267.2,94.6
			c-1.4,0-2.4,0.5-3.1,1.4c-0.7,0.9-1.1,2.1-1.1,3.7h8.1v-0.3c0-1.5-0.3-2.6-0.9-3.4C269.5,95,268.6,94.6,267.2,94.6z"/>
	</g>
	<g>
		<g>
			<g>
				<path class="st0" d="M35.8,16.7c-1.5,0-2.7-1.2-2.7-2.8V5.2c0-1.5,1.2-2.8,2.7-2.8s2.7,1.2,2.7,2.8v8.7
					C38.4,15.4,37.2,16.7,35.8,16.7z"/>
			</g>
		</g>
		<g>
			<g>
				<path class="st0" d="M26.4,18.8c-1,0-2-0.6-2.4-1.7l-3.4-7.9c-0.6-1.4,0-3,1.3-3.7c1.3-0.6,2.9,0,3.5,1.4l3.4,7.9
					c0.6,1.4,0,3-1.3,3.7C27.1,18.7,26.7,18.8,26.4,18.8z"/>
			</g>
		</g>
		<g class="st2">
			<g>
				<path class="st0" d="M18.6,24.7c-0.6,0-1.3-0.2-1.8-0.7l-6.1-5.8c-1.1-1-1.2-2.8-0.2-3.9c1-1.1,2.7-1.2,3.8-0.2l6.1,5.8
					c1.1,1,1.2,2.8,0.2,3.9C20,24.4,19.3,24.7,18.6,24.7z"/>
			</g>
		</g>
		<g class="st2">
			<g>
				<path class="st0" d="M13.8,33.4c-0.3,0-0.5,0-0.8-0.1l-7.9-2.7c-1.4-0.5-2.2-2-1.7-3.5c0.5-1.5,1.9-2.3,3.3-1.8l7.9,2.7
					c1.4,0.5,2.2,2,1.7,3.5C15.9,32.7,14.9,33.4,13.8,33.4z"/>
			</g>
		</g>
		<g class="st3">
			<g>
				<path class="st0" d="M4.6,44.3c-1.3,0-2.5-1.1-2.6-2.5c-0.2-1.5,0.9-2.9,2.4-3.1l8.2-0.9c1.5-0.2,2.8,0.9,2.9,2.5
					c0.2,1.5-0.9,2.9-2.4,3.1l-8.2,0.9C4.7,44.3,4.6,44.3,4.6,44.3z"/>
			</g>
		</g>
		<g class="st3">
			<g>
				<path class="st0" d="M8.6,57.3c-0.9,0-1.8-0.5-2.3-1.4c-0.7-1.3-0.3-3,1-3.8l7.2-4.3c1.3-0.8,2.9-0.3,3.6,1c0.7,1.3,0.3,3-1,3.8
					l-7.2,4.3C9.5,57.2,9,57.3,8.6,57.3z"/>
			</g>
		</g>
		<g class="st4">
			<g>
				<path class="st0" d="M17.3,67.5c-0.5,0-1.1-0.2-1.6-0.5c-1.2-0.9-1.5-2.6-0.6-3.9l4.9-7c0.9-1.2,2.5-1.5,3.7-0.6
					c1.2,0.9,1.5,2.6,0.6,3.9l-4.9,7C19,67.1,18.1,67.5,17.3,67.5z"/>
			</g>
		</g>
		<g class="st4">
			<g>
				<path class="st0" d="M29.3,73c-0.2,0-0.4,0-0.6-0.1c-1.4-0.3-2.4-1.8-2-3.3l1.7-8.5c0.3-1.5,1.7-2.5,3.2-2.1
					c1.4,0.3,2.4,1.8,2,3.3l-1.7,8.5C31.6,72.1,30.5,73,29.3,73z"/>
			</g>
		</g>
		<g class="st4">
			<g>
				<path class="st5" d="M42.3,73c-1.2,0-2.3-0.9-2.6-2.2L38,62.4c-0.3-1.5,0.6-3,2-3.3c1.4-0.3,2.8,0.6,3.2,2.1l1.7,8.5
					c0.3,1.5-0.6,3-2,3.3C42.7,73,42.5,73,42.3,73z"/>
			</g>
		</g>
		<g class="st4">
			<g class="st4">
				<path class="st5" d="M54.2,67.5c-0.8,0-1.6-0.4-2.2-1.1l-4.9-7c-0.9-1.2-0.6-3,0.6-3.9c1.2-0.9,2.9-0.6,3.7,0.6l4.9,7
					c0.9,1.2,0.6,3-0.6,3.9C55.3,67.3,54.8,67.5,54.2,67.5z"/>
			</g>
		</g>
		<g class="st4">
			<g class="st4">
				<path class="st5" d="M54.2,67.5c-0.8,0-1.6-0.4-2.2-1.1l-4.9-7c-0.9-1.2-0.6-3,0.6-3.9c1.2-0.9,2.9-0.6,3.7,0.6l4.9,7
					c0.9,1.2,0.6,3-0.6,3.9C55.3,67.3,54.8,67.5,54.2,67.5z"/>
			</g>
		</g>
		<g class="st6">
			<g>
				<path class="st5" d="M63,57.3c-0.5,0-0.9-0.1-1.3-0.4l-7.2-4.3c-1.3-0.8-1.7-2.5-1-3.8c0.7-1.3,2.4-1.8,3.6-1l7.2,4.3
					c1.3,0.8,1.7,2.5,1,3.8C64.8,56.8,63.9,57.3,63,57.3z"/>
			</g>
		</g>
		<g class="st6">
			<g>
				<path class="st5" d="M67,44.3c-0.1,0-0.2,0-0.3,0l-8.2-0.9c-1.5-0.2-2.5-1.5-2.4-3.1c0.2-1.5,1.5-2.6,2.9-2.5l8.2,0.9
					c1.5,0.2,2.5,1.5,2.4,3.1C69.5,43.3,68.3,44.3,67,44.3z"/>
			</g>
		</g>
		<g class="st7">
			<g>
				<path class="st5" d="M57.8,33.4c-1.1,0-2.2-0.7-2.5-1.9c-0.5-1.5,0.3-3,1.7-3.5l7.9-2.7c1.4-0.5,2.9,0.3,3.3,1.8
					c0.5,1.5-0.3,3-1.7,3.5l-7.9,2.7C58.3,33.4,58.1,33.4,57.8,33.4z"/>
			</g>
		</g>
		<g class="st7">
			<g>
				<path class="st5" d="M53,24.7c-0.7,0-1.5-0.3-2-0.9c-1-1.1-0.9-2.9,0.2-3.9l6.1-5.8c1.1-1,2.8-0.9,3.8,0.2
					c1,1.1,0.9,2.9-0.2,3.9L54.7,24C54.2,24.5,53.6,24.7,53,24.7z"/>
			</g>
		</g>
		<g>
			<g>
				<line class="st8" x1="48.5" y1="8.1" x2="45.2" y2="16"/>
			</g>
			<g class="st9">
				<path class="st5" d="M45.2,16L45.2,16c-0.3-0.2-0.5-0.6-0.3-0.9l2.8-6.6c0.1-0.4,0.5-0.5,0.9-0.4v0C48.9,8.2,49,8.7,48.9,9
					l-2.8,6.6C45.9,16,45.5,16.1,45.2,16z"/>
			</g>
		</g>
	</g>
	<g>
		<path class="st0" d="M278.4,82.7H4.9c-0.9,0-1.6-0.7-1.6-1.6l0,0c0-0.9,0.7-1.6,1.6-1.6h273.5V82.7z"/>
	</g>
	<g>
		<path class="st0" d="M406.5,82.7H294.3v-3.2h112.2c0.9,0,1.6,0.7,1.6,1.6l0,0C408.1,82,407.4,82.7,406.5,82.7z"/>
	</g>
</g>
</svg>
