<?xml version="1.0" encoding="utf-8"?>
<!-- Generator: Adobe Illustrator 27.2.0, SVG Export Plug-In . SVG Version: 6.00 Build 0)  -->
<svg version="1.1" id="Layer_1" xmlns="http://www.w3.org/2000/svg" xmlns:xlink="http://www.w3.org/1999/xlink" x="0px" y="0px"
	 viewBox="0 0 1080 300" style="enable-background:new 0 0 1080 300;" xml:space="preserve">
<style type="text/css">
	.st0{fill:#FFFFFF;}
	.st1{opacity:0.8;}
	.st2{opacity:0.6;}
	.st3{opacity:0.4;}
	.st4{opacity:0.2;}
	.st5{opacity:0.1;}
	.st6{opacity:5.000000e-02;}
</style>
<g id="Logo_Onconceptos_00000149359098216466257070000002927748155811160759_">
	<g>
		<path class="st0" d="M202.8,197.2v-66.9l-2.1-16.6l20.8-3.5l3.6,13.5c2.3-4.9,5.6-8.7,9.8-11.4c4.2-2.6,9.8-4,16.6-4
			c9.6,0,16.9,2.8,22.1,8.3c5.2,5.6,7.7,14,7.7,25.5v55.1h-24.1v-52.9c0-2.9-0.4-5.6-1.1-8.2c-0.7-2.6-2.1-4.7-4-6.3
			c-2-1.6-4.9-2.4-8.9-2.4c-5.4,0-9.5,1.6-12.2,4.7c-2.7,3.1-4.1,7.4-4.1,12.8v52.3H202.8z"/>
		<path class="st0" d="M336.7,200c-13.1,0-23.1-3.6-30.1-10.9c-7-7.3-10.5-18.6-10.5-34.1c0-15.6,3.5-27.3,10.6-35
			c7.1-7.7,17.3-11.6,30.7-11.6c6.2,0,11.7,0.8,16.6,2.5c4.9,1.6,9.1,4,12.8,7.1l-8.4,14.8c-2-1.4-4.5-2.7-7.4-3.7
			c-3-1-6.2-1.6-9.7-1.6c-6.8,0-11.9,2.2-15.3,6.5c-3.4,4.3-5.1,11.2-5.1,20.5c0,17.7,6.9,26.5,20.8,26.5c3.6,0,7-0.5,10.1-1.6
			c3.1-1,5.7-2.3,7.9-3.7l7.7,14.8c-3.7,3-8.2,5.3-13.4,6.9C348.8,199.2,343,200,336.7,200z"/>
		<path class="st0" d="M416.1,200c-13.6,0-23.9-3.8-30.9-11.5c-7-7.7-10.5-19-10.5-34c0-15.1,3.5-26.5,10.6-34.4
			c7.1-7.9,17.4-11.8,31.1-11.8c13.4,0,23.7,3.8,30.7,11.5c7.1,7.7,10.6,19,10.6,34c0,15.3-3.6,26.8-10.7,34.5
			C440,196.1,429.6,200,416.1,200z M416.3,181.1c5.8,0,10.1-2.1,12.7-6.3c2.6-4.2,4-11,4-20.4c0-9.7-1.3-16.6-4-20.8
			c-2.6-4.2-6.8-6.3-12.5-6.3c-5.9,0-10.2,2.1-12.9,6.3c-2.6,4.2-4,11.1-4,20.5c0,9.8,1.3,16.7,4,20.8
			C406.2,179,410.5,181.1,416.3,181.1z"/>
		<path class="st0" d="M474,197.2v-66.9l-2.1-16.6l20.8-3.5l3.6,13.5c2.3-4.9,5.6-8.7,9.8-11.4c4.2-2.6,9.8-4,16.6-4
			c9.6,0,16.9,2.8,22.1,8.3c5.2,5.6,7.7,14,7.7,25.5v55.1h-24.1v-52.9c0-2.9-0.4-5.6-1.1-8.2c-0.7-2.6-2.1-4.7-4-6.3
			c-2-1.6-4.9-2.4-8.9-2.4c-5.4,0-9.5,1.6-12.2,4.7c-2.7,3.1-4.1,7.4-4.1,12.8v52.3H474z"/>
		<path class="st0" d="M607.8,200c-13.1,0-23.1-3.6-30.1-10.9c-7-7.3-10.5-18.6-10.5-34.1c0-15.6,3.5-27.3,10.6-35
			c7.1-7.7,17.3-11.6,30.7-11.6c6.2,0,11.7,0.8,16.6,2.5c4.9,1.6,9.1,4,12.8,7.1l-8.4,14.8c-2-1.4-4.5-2.7-7.4-3.7
			c-3-1-6.2-1.6-9.7-1.6c-6.8,0-11.9,2.2-15.3,6.5c-3.4,4.3-5.1,11.2-5.1,20.5c0,17.7,6.9,26.5,20.8,26.5c3.6,0,7-0.5,10.1-1.6
			c3.1-1,5.7-2.3,7.9-3.7l7.7,14.8c-3.7,3-8.2,5.3-13.4,6.9C620,199.2,614.2,200,607.8,200z"/>
		<path class="st0" d="M688.4,200c-13.6,0-24.1-3.7-31.5-11.1c-7.4-7.4-11-18.9-11-34.5c0-14.8,3.4-26.2,10.2-34.1
			c6.8-7.9,16.8-11.9,30-11.9c12.1,0,21.4,3.4,27.9,10.1c6.5,6.8,9.7,16.8,9.7,30.2V161h-54.2c0.3,3.7,1.2,7.1,2.5,10.1
			c1.3,3,3.5,5.5,6.7,7.3c3.1,1.9,7.5,2.8,13.1,2.8c8.9,0,16.6-2.5,23.1-7.4l8.2,15c-4.5,3.8-9.7,6.7-15.5,8.5
			C701.7,199.1,695.4,200,688.4,200z M686,126.8c-4.5,0-7.9,1-10.3,3.1c-2.4,2.1-4,4.6-4.9,7.7c-0.9,3-1.4,6.1-1.6,9.1h32.6
			c-0.1-3-0.6-6-1.3-9.1c-0.8-3.1-2.3-5.7-4.5-7.7C693.8,127.9,690.5,126.8,686,126.8z"/>
		<path class="st0" d="M740.7,235.5V130.3l-2.1-16.6l20.6-3.5l3.8,13.8c2.6-5.6,6.1-9.6,10.4-12c4.3-2.4,9.4-3.6,15.3-3.6
			c10.2,0,18.4,3.6,24.4,10.9c6,7.3,9.1,18.8,9.1,34.8c0,15.4-2.9,26.9-8.8,34.5c-5.9,7.6-14.4,11.5-25.5,11.5
			c-5.3,0-9.8-0.9-13.5-2.7c-3.7-1.8-6.9-4.8-9.6-9v47.1H740.7z M780.7,181.1c5.4,0,9.5-2,12.4-5.9c2.9-4,4.3-10.9,4.3-20.9
			c0-9.3-1.3-16.2-4-20.4c-2.7-4.3-6.8-6.4-12.3-6.4c-4.9,0-8.9,1.6-11.9,4.8c-3,3.2-4.5,8.2-4.5,15v14.3c0,6.9,1.4,11.9,4.3,15
			C771.9,179.5,775.8,181.1,780.7,181.1z"/>
		<path class="st0" d="M874.7,198.9c-9.7,0-17.1-2.6-22.4-7.8c-5.3-5.2-7.9-13.6-7.9-25.1v-36.8h-15.2V114l15.2-2.8V87.6h24.2v23.6
			h23.1v18h-23.1v35.8c0,9.8,3.8,14.7,11.5,14.7c2.1,0,4.2-0.3,6.3-1c2.1-0.7,4.1-1.4,6-2.3l6.3,16.3c-2.7,1.8-6.2,3.2-10.2,4.5
			C884.5,198.3,879.9,198.9,874.7,198.9z"/>
		<path class="st0" d="M943.8,200c-13.6,0-23.9-3.8-30.9-11.5c-7-7.7-10.5-19-10.5-34c0-15.1,3.5-26.5,10.6-34.4
			c7.1-7.9,17.4-11.8,31.1-11.8c13.4,0,23.7,3.8,30.7,11.5c7.1,7.7,10.6,19,10.6,34c0,15.3-3.6,26.8-10.7,34.5
			C967.6,196.1,957.3,200,943.8,200z M943.9,181.1c5.8,0,10.1-2.1,12.7-6.3c2.6-4.2,4-11,4-20.4c0-9.7-1.3-16.6-4-20.8
			c-2.6-4.2-6.8-6.3-12.5-6.3c-5.9,0-10.2,2.1-12.9,6.3c-2.6,4.2-4,11.1-4,20.5c0,9.8,1.3,16.7,4,20.8
			C933.9,179,938.1,181.1,943.9,181.1z"/>
		<path class="st0" d="M1029.7,200c-6.8,0-13.3-0.9-19.4-2.7c-6.1-1.8-11.3-4.5-15.7-8l8.2-16c3.7,2.5,7.9,4.5,12.4,5.8
			c4.5,1.3,9.4,2,14.7,2c5.1,0,8.6-0.7,10.5-2.1c2-1.4,3-3.3,3-5.6c0-2.3-0.8-4.1-2.3-5.3c-1.5-1.2-4.1-2.3-7.6-3.1l-10.1-2.5
			c-8.7-2.1-15.2-5.3-19.5-9.6c-4.3-4.3-6.5-10-6.5-17.1c0-8.5,3.1-15.1,9.2-20c6.2-4.9,14.6-7.3,25.2-7.3c5.7,0,11.3,0.9,16.7,2.6
			c5.4,1.7,10.2,4.3,14.4,7.7l-8.7,15.2c-3-2-6.3-3.6-9.9-4.8c-3.6-1.2-7.6-1.8-12-1.8c-4,0-7,0.6-9.2,1.9c-2.2,1.3-3.3,3.2-3.3,5.7
			c0,2.1,0.7,3.7,2.2,4.8c1.5,1.1,4.1,2.1,8,3l9.9,2.5c8.2,2,14.6,5.1,19.2,9.5c4.6,4.3,6.8,10.2,6.8,17.7c0,8.7-3.2,15.5-9.6,20.4
			C1050,197.5,1041.1,200,1029.7,200z"/>
	</g>
	<g>
		<path class="st0" d="M380.3,287.1c-3.4,0-6.2-1-8.3-2.9c-2.1-1.9-3.1-4.5-3.1-7.7c0-4.4,1.9-7.7,5.8-10.1
			c3.9-2.4,9.6-3.6,17.1-3.7c-0.1-3-0.9-5.3-2.3-6.9c-1.4-1.6-3.8-2.3-7-2.3c-1.8,0-3.6,0.3-5.2,0.8c-1.6,0.5-3.1,1.2-4.5,2.1
			l-1.5-2.8c1.4-1.1,3.1-1.9,5.2-2.5c2-0.6,4.2-1,6.6-1c4.4,0,7.6,1.1,9.7,3.4c2.1,2.2,3.1,5.5,3.1,9.7v15.2l0.9,7.6l-3.6,0.6
			l-1.1-5.9c-1.2,2.3-2.8,4-5,5C385,286.6,382.7,287.1,380.3,287.1z M373,276.2c0,2.2,0.7,4.1,2.2,5.4c1.4,1.4,3.4,2.1,6,2.1
			c1.8,0,3.6-0.4,5.2-1.1c1.6-0.8,2.9-1.9,3.9-3.3c1-1.4,1.5-3.2,1.5-5.3v-8.4c-6.3,0.2-11,1.2-14.1,3
			C374.5,270.5,373,273,373,276.2z"/>
		<path class="st0" d="M434,286.9c-3.8,0-6.5-1.2-8-3.5c-1.6-2.3-2.3-5.5-2.3-9.4v-19.7H417v-2.8l6.7-0.5v-10.4h4.1V251h11.6v3.3
			h-11.6V274c0,3,0.5,5.3,1.6,6.9c1.1,1.6,2.8,2.5,5.4,2.5c1.2,0,2.3-0.2,3.4-0.6c1.1-0.4,2.1-0.8,2.9-1.3l1.3,2.9
			c-1,0.7-2.2,1.3-3.6,1.7C437.3,286.7,435.7,286.9,434,286.9z"/>
		<path class="st0" d="M476.7,251v27.5l0.9,7.4l-3.6,0.6l-1.1-5.9c-2.1,4.4-6.1,6.7-12,6.7c-3.9,0-6.9-1.1-9-3.4
			c-2.1-2.3-3.1-5.8-3.1-10.7V251h4.1v21.7c0,1.9,0.3,3.7,0.8,5.4c0.5,1.7,1.4,3,2.8,4.1c1.3,1,3.1,1.5,5.5,1.5c3.3,0,5.9-1,7.9-2.9
			c1.9-1.9,2.9-4.4,2.9-7.5V251H476.7z"/>
		<path class="st0" d="M511.3,287.1c-3.4,0-6.2-1-8.3-2.9c-2.1-1.9-3.1-4.5-3.1-7.7c0-4.4,1.9-7.7,5.8-10.1
			c3.9-2.4,9.6-3.6,17.1-3.7c-0.1-3-0.9-5.3-2.3-6.9c-1.4-1.6-3.8-2.3-7-2.3c-1.8,0-3.6,0.3-5.2,0.8c-1.6,0.5-3.1,1.2-4.5,2.1
			l-1.5-2.8c1.4-1.1,3.1-1.9,5.2-2.5c2-0.6,4.2-1,6.6-1c4.4,0,7.6,1.1,9.7,3.4c2.1,2.2,3.1,5.5,3.1,9.7v15.2l0.9,7.6l-3.6,0.6
			l-1.1-5.9c-1.2,2.3-2.8,4-5,5C516,286.6,513.7,287.1,511.3,287.1z M504,276.2c0,2.2,0.7,4.1,2.2,5.4c1.4,1.4,3.4,2.1,6,2.1
			c1.8,0,3.6-0.4,5.2-1.1c1.6-0.8,2.9-1.9,3.9-3.3c1-1.4,1.5-3.2,1.5-5.3v-8.4c-6.3,0.2-11,1.2-14.1,3
			C505.6,270.5,504,273,504,276.2z"/>
		<path class="st0" d="M537.6,286.4v-52h4.1v52H537.6z"/>
		<path class="st0" d="M565.9,287.2c-5,0-8.7-1.6-11.3-4.7c-2.6-3.1-3.9-7.7-3.9-13.6c0-6.1,1.3-10.8,4-14c2.6-3.2,6.5-4.8,11.4-4.8
			c2.2,0,4.1,0.3,6,0.9c1.8,0.6,3.4,1.6,4.7,2.9l-1.9,2.6c-1-0.9-2.2-1.6-3.7-2.1c-1.4-0.5-3-0.8-4.7-0.8c-3.8,0-6.7,1.3-8.7,3.9
			c-2,2.6-3,6.4-3,11.4c0,4.8,0.9,8.4,2.8,11c1.9,2.6,4.8,3.9,8.7,3.9c1.8,0,3.4-0.3,4.9-0.8c1.5-0.5,2.8-1.2,3.8-2l1.7,2.8
			c-1.3,1.1-2.9,1.9-4.8,2.5C570.3,286.9,568.2,287.2,565.9,287.2z"/>
		<path class="st0" d="M593,287.1c-3.4,0-6.2-1-8.3-2.9c-2.1-1.9-3.1-4.5-3.1-7.7c0-4.4,1.9-7.7,5.8-10.1c3.9-2.4,9.6-3.6,17.1-3.7
			c-0.1-3-0.9-5.3-2.3-6.9c-1.4-1.6-3.8-2.3-7-2.3c-1.8,0-3.6,0.3-5.2,0.8c-1.7,0.5-3.1,1.2-4.5,2.1l-1.5-2.8
			c1.4-1.1,3.1-1.9,5.2-2.5c2-0.6,4.2-1,6.6-1c4.4,0,7.6,1.1,9.7,3.4c2.1,2.2,3.1,5.5,3.1,9.7v15.2l0.9,7.6l-3.6,0.6l-1.1-5.9
			c-1.2,2.3-2.8,4-5,5C597.7,286.6,595.4,287.1,593,287.1z M585.7,276.2c0,2.2,0.7,4.1,2.2,5.4c1.4,1.4,3.4,2.1,6,2.1
			c1.8,0,3.6-0.4,5.2-1.1c1.6-0.8,2.9-1.9,3.9-3.3c1-1.4,1.5-3.2,1.5-5.3v-8.4c-6.3,0.2-11,1.2-14.1,3
			C587.3,270.5,585.7,273,585.7,276.2z"/>
		<path class="st0" d="M619.4,286.4v-27.6l-0.9-7.4l3.5-0.6l1.1,5.9c2.2-4.5,6.2-6.7,12.1-6.7c4.1,0,7.2,1.2,9.4,3.5
			c2.2,2.3,3.2,5.9,3.2,10.6v22.2h-4.1v-21.8c0-1.9-0.3-3.7-0.8-5.4c-0.5-1.7-1.5-3-2.8-4c-1.3-1-3.2-1.5-5.7-1.5
			c-3.4,0-6.1,1-8,2.9c-2,1.9-3,4.4-3,7.5v22.4H619.4z"/>
		<path class="st0" d="M671.5,287.2c-5,0-8.7-1.6-11.3-4.7c-2.6-3.1-3.9-7.7-3.9-13.6c0-6.1,1.3-10.8,4-14c2.6-3.2,6.5-4.8,11.4-4.8
			c2.2,0,4.1,0.3,6,0.9c1.8,0.6,3.4,1.6,4.7,2.9l-1.9,2.6c-1-0.9-2.2-1.6-3.7-2.1c-1.4-0.5-3-0.8-4.7-0.8c-3.8,0-6.7,1.3-8.7,3.9
			c-2,2.6-3,6.4-3,11.4c0,4.8,0.9,8.4,2.8,11c1.9,2.6,4.8,3.9,8.7,3.9c1.8,0,3.4-0.3,4.9-0.8c1.5-0.5,2.8-1.2,3.8-2l1.7,2.8
			c-1.3,1.1-2.9,1.9-4.8,2.5C675.9,286.9,673.8,287.2,671.5,287.2z"/>
		<path class="st0" d="M703.8,287.2c-5.2,0-9.2-1.6-12.1-4.8c-2.9-3.2-4.4-7.9-4.4-14c0-5.8,1.3-10.3,3.9-13.5
			c2.6-3.2,6.4-4.8,11.4-4.8c4.5,0,7.9,1.3,10.3,4c2.4,2.7,3.6,6.6,3.6,11.7v4.2h-25.1c0.2,4.3,1.3,7.7,3.4,10.2s5.2,3.7,9.4,3.7
			c2,0,3.9-0.3,5.5-0.9c1.7-0.6,3.2-1.3,4.4-2.3l1.7,2.8c-1.6,1.3-3.4,2.2-5.4,2.9C708.5,286.9,706.3,287.2,703.8,287.2z
			 M702.6,253.5c-3.7,0-6.4,1.2-8.2,3.5c-1.8,2.4-2.8,5.6-3,9.6h21.2v-0.8c0-3.8-0.8-6.8-2.4-9C708.6,254.6,706.1,253.5,702.6,253.5
			z"/>
	</g>
	<g>
		<g>
			<g>
				<path class="st0" d="M97.9,49.9c-3.8,0-6.9-3.3-6.9-7.3V20c0-4,3.1-7.3,6.9-7.3c3.8,0,6.9,3.3,6.9,7.3v22.6
					C104.9,46.6,101.7,49.9,97.9,49.9z"/>
			</g>
		</g>
		<g>
			<g>
				<path class="st0" d="M73.3,55.4c-2.7,0-5.2-1.6-6.3-4.3l-8.8-20.6c-1.6-3.7,0-8,3.5-9.6c3.5-1.6,7.6,0,9.2,3.7l8.8,20.6
					c1.6,3.7,0,8-3.5,9.6C75.2,55.2,74.3,55.4,73.3,55.4z"/>
			</g>
		</g>
		<g class="st1">
			<g>
				<path class="st0" d="M53,70.8c-1.7,0-3.3-0.6-4.6-1.9l-16-15.1c-2.8-2.7-3.1-7.3-0.5-10.3c2.6-3,6.9-3.2,9.8-0.5l16,15.1
					c2.8,2.7,3.1,7.3,0.5,10.3C56.8,70,54.9,70.8,53,70.8z"/>
			</g>
		</g>
		<g class="st1">
			<g>
				<path class="st0" d="M40.4,93.6c-0.7,0-1.4-0.1-2.1-0.4l-20.5-7c-3.6-1.2-5.6-5.3-4.5-9.2c1.2-3.8,5.1-5.9,8.7-4.7l20.5,7
					c3.6,1.2,5.6,5.3,4.5,9.2C46.1,91.6,43.4,93.6,40.4,93.6z"/>
			</g>
		</g>
		<g class="st2">
			<g>
				<path class="st0" d="M16.3,122.1c-3.5,0-6.5-2.8-6.9-6.5c-0.4-4,2.4-7.6,6.2-8l21.5-2.4c3.8-0.4,7.2,2.5,7.6,6.5
					c0.4,4-2.4,7.6-6.2,8l-21.5,2.4C16.8,122.1,16.6,122.1,16.3,122.1z"/>
			</g>
		</g>
		<g class="st2">
			<g>
				<path class="st0" d="M26.9,156.1c-2.4,0-4.7-1.3-6-3.6c-1.9-3.5-0.8-7.9,2.5-9.9l18.7-11.3c3.3-2,7.6-0.8,9.5,2.7
					c1.9,3.5,0.8,7.9-2.5,9.9l-18.7,11.3C29.3,155.7,28.1,156.1,26.9,156.1z"/>
			</g>
		</g>
		<g class="st3">
			<g>
				<path class="st0" d="M49.7,182.6c-1.4,0-2.8-0.5-4.1-1.4c-3.1-2.4-3.8-6.9-1.5-10.1l12.7-18.3c2.3-3.2,6.6-4,9.7-1.6
					c3.1,2.4,3.8,6.9,1.5,10.1l-12.7,18.3C54,181.5,51.8,182.6,49.7,182.6z"/>
			</g>
		</g>
		<g class="st3">
			<g>
				<path class="st0" d="M80.9,197.1c-0.5,0-1-0.1-1.5-0.2c-3.7-0.8-6.1-4.7-5.3-8.6l4.5-22.1c0.8-3.9,4.5-6.4,8.2-5.6
					c3.7,0.8,6.1,4.7,5.3,8.6l-4.5,22.1C87,194.8,84.1,197.1,80.9,197.1z"/>
			</g>
		</g>
		<g class="st3">
			<g>
				<path class="st0" d="M115,197.1c-3.2,0-6.1-2.3-6.8-5.8l-4.5-22.1c-0.8-3.9,1.6-7.8,5.3-8.6c3.8-0.8,7.4,1.7,8.2,5.6l4.5,22.1
					c0.8,3.9-1.6,7.8-5.3,8.6C115.9,197,115.4,197.1,115,197.1z"/>
			</g>
		</g>
		<g class="st3">
			<g class="st3">
				<path class="st0" d="M146.1,182.6c-2.1,0-4.3-1-5.6-3l-12.7-18.3c-2.3-3.2-1.6-7.8,1.5-10.1c3.1-2.4,7.4-1.6,9.7,1.6l12.7,18.3
					c2.3,3.2,1.6,7.8-1.5,10.1C149,182.1,147.5,182.6,146.1,182.6z"/>
			</g>
		</g>
		<g class="st3">
			<g class="st3">
				<path class="st0" d="M146.1,182.6c-2.1,0-4.3-1-5.6-3l-12.7-18.3c-2.3-3.2-1.6-7.8,1.5-10.1c3.1-2.4,7.4-1.6,9.7,1.6l12.7,18.3
					c2.3,3.2,1.6,7.8-1.5,10.1C149,182.1,147.5,182.6,146.1,182.6z"/>
			</g>
		</g>
		<g class="st4">
			<g>
				<path class="st0" d="M168.9,156.1c-1.2,0-2.4-0.3-3.5-1l-18.7-11.3c-3.3-2-4.5-6.4-2.5-9.9c1.9-3.5,6.2-4.7,9.5-2.7l18.7,11.3
					c3.3,2,4.5,6.4,2.5,9.9C173.7,154.7,171.3,156.1,168.9,156.1z"/>
			</g>
		</g>
		<g class="st4">
			<g>
				<path class="st0" d="M179.5,122.1c-0.2,0-0.5,0-0.7,0l-21.5-2.4c-3.8-0.4-6.6-4-6.2-8c0.4-4,3.8-6.9,7.6-6.5l21.5,2.4
					c3.8,0.4,6.6,4,6.2,8C186,119.3,183,122.1,179.5,122.1z"/>
			</g>
		</g>
		<g class="st5">
			<g>
				<path class="st0" d="M155.4,93.6c-2.9,0-5.6-2-6.6-5c-1.2-3.8,0.8-7.9,4.5-9.2l20.5-7c3.7-1.2,7.6,0.8,8.7,4.7
					c1.2,3.8-0.8,7.9-4.5,9.2l-20.5,7C156.8,93.5,156.1,93.6,155.4,93.6z"/>
			</g>
		</g>
		<g class="st5">
			<g>
				<path class="st0" d="M142.8,70.8c-1.9,0-3.8-0.8-5.2-2.4c-2.6-3-2.3-7.6,0.5-10.3L154.2,43c2.9-2.7,7.2-2.4,9.8,0.5
					c2.6,3,2.3,7.6-0.5,10.3l-16.1,15.1C146.1,70.2,144.5,70.8,142.8,70.8z"/>
			</g>
		</g>
		<g>
			<g>
				<line class="st0" x1="131.3" y1="27.4" x2="122.5" y2="48.1"/>
			</g>
			<g class="st6">
				<path class="st0" d="M122.5,48.1L122.5,48.1c-0.9-0.4-1.3-1.5-0.9-2.4l7.4-17.3c0.4-0.9,1.4-1.3,2.3-0.9v0
					c0.9,0.4,1.3,1.5,0.9,2.4l-7.4,17.3C124.4,48.1,123.4,48.5,122.5,48.1z"/>
			</g>
		</g>
	</g>
	<g>
		<path class="st0" d="M731.7,222.5H17.3c-2.3,0-4.2-1.9-4.2-4.2v0c0-2.3,1.9-4.2,4.2-4.2h714.4V222.5z"/>
	</g>
	<g>
		<path class="st0" d="M1066.4,222.5H773.2v-8.3h293.2c2.3,0,4.2,1.9,4.2,4.2v0C1070.6,220.6,1068.7,222.5,1066.4,222.5z"/>
	</g>
</g>
</svg>
