<?xml version="1.0" encoding="utf-8"?>
<!-- Generator: Adobe Illustrator 27.2.0, SVG Export Plug-In . SVG Version: 6.00 Build 0)  -->
<svg version="1.1" id="Layer_1" xmlns="http://www.w3.org/2000/svg" xmlns:xlink="http://www.w3.org/1999/xlink" x="0px" y="0px"
	 viewBox="0 0 43 43" style="enable-background:new 0 0 43 43;" xml:space="preserve">
<style type="text/css">
	.st0{fill:#999999;}
</style>
<path class="st0" d="M38.3,5c-5.9-6.2-16.6-6.2-22.6,0c-5.3,5.1-6.2,14-2,20.1L0.9,37.9c-1.1,1.1-1.1,2.8,0,3.9
	c1.1,1.1,2.8,1.1,3.9,0l12.7-12.7c6.1,4.7,15.5,4.1,20.8-1.5c0,0,0,0,0,0C44.5,21.7,44.5,11,38.3,5z M35.1,24.4L35.1,24.4
	c-7.1,7.2-19.5,2-19.5-8.1C15.5,10.2,20.9,4.8,27,4.9C37.1,4.9,42.2,17.3,35.1,24.4z"/>
</svg>
