<?xml version="1.0" encoding="utf-8"?>
<!-- Generator: Adobe Illustrator 27.2.0, SVG Export Plug-In . SVG Version: 6.00 Build 0)  -->
<svg version="1.1" id="Layer_1" xmlns="http://www.w3.org/2000/svg" xmlns:xlink="http://www.w3.org/1999/xlink" x="0px" y="0px"
	 viewBox="0 0 48 72" style="enable-background:new 0 0 48 72;" xml:space="preserve">
<style type="text/css">
	.st0{fill:#FFFFFF;}
</style>
<g>
	<path class="st0" d="M24.2,0c4.7,0.1,10,1.1,14.8,3.9c8.4,5,9.7,13.6,8.2,19.5c-0.9,3.8-3.2,6.8-6.1,9.2c-2.5,2.1-5.1,4.1-7.8,6
		c-2.3,1.6-4,3.6-4.7,6.3c-0.1,0.4-0.3,0.8-0.5,1.2c-1.1,2.8-3.1,4.1-7,3.7c-2.9-0.3-5-2.6-5.3-5.5c-0.4-3.5,0.8-6.6,3.2-9
		c2.1-2.1,4.5-4,6.8-5.9c1.8-1.5,3.6-2.9,5-4.7c2.5-3.3,2.4-7.8-0.2-10.6c-1.6-1.7-3.6-2.4-5.8-2.5c-2.6-0.2-5.1,0-7.3,1.5
		c-1.6,1.1-2.5,2.7-3.4,4.4c-0.6,1.2-1.2,2.5-1.9,3.7c-2.1,3.4-7,4.2-10.1,1.7c-1.9-1.5-2.3-3.6-2-5.9c0.5-4.6,2.9-8.1,6.4-11
		C11.3,2,17.2,0,24.2,0z"/>
	<path class="st0" d="M14.5,63.9c0-4.6,3.7-8.1,8.2-8.1c4.5,0,8.1,3.7,8,8.3c0,4.3-3.8,8-8.1,7.9C18,72,14.4,68.3,14.5,63.9z"/>
</g>
</svg>
