<?xml version="1.0" encoding="utf-8"?>
<!-- Generator: Adobe Illustrator 27.2.0, SVG Export Plug-In . SVG Version: 6.00 Build 0)  -->
<svg version="1.1" id="Layer_1" xmlns="http://www.w3.org/2000/svg" xmlns:xlink="http://www.w3.org/1999/xlink" x="0px" y="0px"
	 viewBox="0 0 1300 1350" style="enable-background:new 0 0 1300 1350;" xml:space="preserve">
<style type="text/css">
	.st0{opacity:0.17;}
	.st1{fill:#FFFFFF;}
	.st2{opacity:0.8;}
	.st3{opacity:0.6;}
	.st4{opacity:0.4;}
	.st5{opacity:0.2;}
	.st6{opacity:0.1;}
	.st7{opacity:5.000000e-02;}
</style>
<g class="st0">
	<g>
		<g>
			<path class="st1" d="M650,281.5c-27.4,0-49.6-23.3-49.6-51.9V67.9c0-28.7,22.2-51.9,49.6-51.9s49.6,23.3,49.6,51.9v161.6
				C699.6,258.2,677.4,281.5,650,281.5z"/>
		</g>
	</g>
	<g>
		<g>
			<path class="st1" d="M474.3,320.6c-19,0-37.1-11.5-45.4-30.8l-62.8-147.6c-11.1-26.2,0.1-56.9,25.2-68.6
				c25-11.7,54.4,0.1,65.5,26.3l62.8,147.6c11.1,26.2-0.1,56.9-25.2,68.6C487.9,319.1,481,320.6,474.3,320.6z"/>
		</g>
	</g>
	<g class="st2">
		<g>
			<path class="st1" d="M328.9,431.1c-11.8,0-23.7-4.4-33.2-13.4L181,309.6c-20.3-19.2-22-52-3.6-73.3c18.3-21.3,49.7-23.1,70.1-3.8
				l114.7,108.1c20.3,19.2,22,52,3.6,73.3C356,425.3,342.5,431.1,328.9,431.1z"/>
		</g>
	</g>
	<g class="st2">
		<g>
			<path class="st1" d="M239.1,593.9c-5.1,0-10.2-0.8-15.3-2.6L76.9,541.4C50.8,532.6,36.6,503.3,45,476
				c8.5-27.3,36.4-42.3,62.5-33.3l146.9,49.9c26.1,8.9,40.3,38.2,31.9,65.4C279.5,580,260,593.9,239.1,593.9z"/>
		</g>
	</g>
	<g class="st3">
		<g>
			<path class="st1" d="M66.7,797.8c-25.1,0-46.6-19.8-49.3-46.5c-2.9-28.5,16.9-54.1,44.2-57.1l153.5-16.9
				c27.1-2.9,51.7,17.7,54.6,46.2c2.9,28.5-16.9,54.1-44.2,57.1L72,797.5C70.2,797.7,68.4,797.8,66.7,797.8z"/>
		</g>
	</g>
	<g class="st3">
		<g>
			<path class="st1" d="M142.2,1040.5c-17.2,0-33.8-9.3-43-26c-13.7-24.8-5.6-56.6,18.2-70.9L251,862.8c23.7-14.4,54.1-5.8,67.8,19
				c13.7,24.8,5.6,56.6-18.2,70.9l-133.7,80.8C159.1,1038.3,150.6,1040.5,142.2,1040.5z"/>
		</g>
	</g>
	<g class="st4">
		<g>
			<path class="st1" d="M305.3,1230.2c-10.1,0-20.3-3.2-29.1-9.9c-22.2-16.9-27.1-49.3-11-72.5l90.7-130.7
				c16.1-23.2,47.1-28.3,69.3-11.5c22.2,16.9,27.1,49.3,11,72.5l-90.7,130.7C335.8,1222.8,320.6,1230.2,305.3,1230.2z"/>
		</g>
	</g>
	<g class="st4">
		<g>
			<path class="st1" d="M528.1,1334c-3.4,0-6.9-0.4-10.4-1.2c-26.8-6-43.9-33.6-38.2-61.6l32.1-158.1c5.7-28.1,32.2-46,58.9-40
				c26.8,6,43.9,33.6,38.2,61.6l-32.1,158.1C571.6,1317.3,551,1334,528.1,1334z"/>
		</g>
	</g>
	<g class="st4">
		<g>
			<path class="st1" d="M771.9,1334c-22.9,0-43.6-16.7-48.5-41.2l-32.1-158.1c-5.7-28.1,11.4-55.6,38.2-61.6
				c26.8-5.9,53.2,12,58.9,40l32.1,158.1c5.7,28.1-11.4,55.6-38.2,61.6C778.8,1333.6,775.3,1334,771.9,1334z"/>
		</g>
	</g>
	<g class="st4">
		<g class="st4">
			<path class="st1" d="M994.7,1230.2c-15.3,0-30.5-7.4-40.2-21.4L863.8,1078c-16.1-23.2-11.2-55.7,11-72.5
				c22.2-16.8,53.2-11.7,69.3,11.5l90.7,130.7c16.1,23.2,11.2,55.7-11,72.5C1015,1227,1004.8,1230.2,994.7,1230.2z"/>
		</g>
	</g>
	<g class="st4">
		<g class="st4">
			<path class="st1" d="M994.7,1230.2c-15.3,0-30.5-7.4-40.2-21.4L863.8,1078c-16.1-23.2-11.2-55.7,11-72.5
				c22.2-16.8,53.2-11.7,69.3,11.5l90.7,130.7c16.1,23.2,11.2,55.7-11,72.5C1015,1227,1004.8,1230.2,994.7,1230.2z"/>
		</g>
	</g>
	<g class="st5">
		<g>
			<path class="st1" d="M1157.8,1040.5c-8.4,0-17-2.3-24.8-7l-133.7-80.8c-23.7-14.3-31.9-46.1-18.2-70.9
				c13.7-24.9,44.1-33.4,67.8-19l133.7,80.8c23.7,14.3,31.9,46.1,18.2,70.9C1191.6,1031.2,1175,1040.5,1157.8,1040.5z"/>
		</g>
	</g>
	<g class="st5">
		<g>
			<path class="st1" d="M1233.3,797.8c-1.7,0-3.5-0.1-5.3-0.3l-153.6-16.9c-27.3-3-47-28.6-44.2-57.1c2.9-28.5,27.4-49.3,54.6-46.2
				l153.6,16.9c27.3,3,47,28.6,44.2,57.1C1279.9,778,1258.4,797.8,1233.3,797.8z"/>
		</g>
	</g>
	<g class="st6">
		<g>
			<path class="st1" d="M1060.9,593.9c-20.9,0-40.4-14-47.2-35.9c-8.5-27.3,5.8-56.6,31.9-65.4l146.8-49.9
				c26.1-8.9,54.1,6.1,62.5,33.4c8.5,27.3-5.8,56.6-31.9,65.4l-146.8,49.9C1071.2,593.1,1066,593.9,1060.9,593.9z"/>
		</g>
	</g>
	<g class="st6">
		<g>
			<path class="st1" d="M971.1,431.1c-13.6,0-27.1-5.8-36.9-17.2c-18.3-21.3-16.7-54.2,3.7-73.4l114.8-108.1
				c20.4-19.2,51.8-17.5,70.1,3.9c18.3,21.3,16.7,54.2-3.7,73.4l-114.8,108.1C994.8,426.7,982.9,431.1,971.1,431.1z"/>
		</g>
	</g>
	<g>
		<g>
			<line class="st1" x1="888.5" y1="121" x2="825.7" y2="268.6"/>
		</g>
		<g class="st7">
			<path class="st1" d="M825.7,268.6L825.7,268.6c-6.3-2.9-9.1-10.6-6.3-17.1l52.7-123.9c2.8-6.5,10.1-9.5,16.4-6.6l0,0
				c6.3,2.9,9.1,10.6,6.3,17.1L842.1,262C839.3,268.6,832,271.5,825.7,268.6z"/>
		</g>
	</g>
</g>
</svg>
